<svg width="138" height="46" viewBox="0 0 138 46" fill="none" xmlns="http://www.w3.org/2000/svg">
<g clip-path="url(#clip0)">
<path d="M58.0854 12.3459L36.7605 0V24.7006L58.0854 12.3459Z" fill="url(#paint0_linear)"/>
<path d="M13.8981 40.427L12.8558 37.7348H12.7168C11.9643 38.7267 10.9918 39.5291 9.87636 40.0785C8.6763 40.5846 7.38161 40.8253 6.08044 40.7842C5.26184 40.8284 4.44279 40.706 3.67254 40.4245C2.90229 40.1431 2.19674 39.7082 1.59831 39.1463C1.03367 38.5202 0.601032 37.7861 0.326375 36.988C0.0517181 36.19 -0.0592884 35.3445 2.36619e-05 34.5024C-0.0650483 33.6026 0.103144 32.7012 0.488244 31.8859C0.873343 31.0706 1.46224 30.3692 2.19766 29.8498C3.66275 28.8449 5.87776 28.2931 8.84269 28.1944L12.2651 28.0898V27.2185C12.2651 25.2088 11.2401 24.2039 9.19015 24.2039C7.25505 24.2919 5.35916 24.7814 3.62222 25.6415L1.88495 21.9909C4.22066 20.7758 6.81981 20.1592 9.45074 20.1961C12.103 20.1961 14.1298 20.7769 15.5312 21.9386C16.9383 23.0887 17.6506 24.8574 17.6506 27.2185V40.427H13.8981ZM12.2651 31.2438L10.1804 31.3135C8.96444 31.2786 7.76237 31.58 6.70586 32.1848C6.32587 32.4458 6.02028 32.8016 5.81921 33.2172C5.61814 33.6328 5.52855 34.0937 5.55927 34.5546C5.55927 36.0794 6.4279 36.8461 8.16516 36.8461C9.2674 36.8814 10.3387 36.4773 11.1446 35.7222C11.5207 35.3476 11.8147 34.8984 12.0076 34.4033C12.2006 33.9082 12.2883 33.3781 12.2651 32.847V31.2438ZM68.8912 40.8278C65.712 40.8278 63.2277 39.9565 61.4383 38.214C59.649 36.4714 58.7514 33.9796 58.7456 30.7385C58.7456 27.4218 59.5737 24.8545 61.2299 23.0364C62.1109 22.1113 63.1813 21.3885 64.3674 20.9177C65.5535 20.4469 66.8271 20.2394 68.1007 20.3094C69.2902 20.2301 70.4832 20.3973 71.6055 20.8005C72.7278 21.2037 73.7554 21.8343 74.6242 22.6531C75.4312 23.5446 76.0528 24.5887 76.4525 25.7242C76.8522 26.8598 77.0221 28.0639 76.9521 29.266V31.8798H64.2093C64.191 33.2096 64.6787 34.4964 65.573 35.4782C66.048 35.9279 66.6099 36.2751 67.2239 36.4984C67.838 36.7217 68.4912 36.8163 69.1431 36.7764C70.2773 36.7839 71.4084 36.6582 72.5134 36.4017C73.661 36.1258 74.7762 35.7286 75.8402 35.2168V39.3989C74.881 39.8767 73.8653 40.2309 72.8174 40.4532C71.524 40.7035 70.2084 40.8203 68.8912 40.8017V40.8278ZM68.1355 24.0994C67.6344 24.0712 67.1334 24.1542 66.6679 24.3425C66.2025 24.5307 65.7842 24.8196 65.4427 25.1885C64.7405 26.0673 64.3494 27.1554 64.3309 28.2815H71.8967C71.9488 27.1558 71.5767 26.0516 70.8543 25.1885C70.5074 24.8194 70.0844 24.5308 69.6148 24.3427C69.1452 24.1546 68.6404 24.0715 68.1355 24.0994V24.0994ZM95.1239 34.5546C95.1439 33.6817 94.9688 32.8154 94.6114 32.0192C94.241 31.2746 93.6955 30.6317 93.0218 30.146C91.9658 29.4267 90.825 28.8414 89.6254 28.4035C88.46 27.9799 87.335 27.4521 86.2638 26.8265C86.0402 26.6994 85.8522 26.5178 85.717 26.2985C85.5819 26.0792 85.5041 25.8293 85.4907 25.5718C85.4907 24.7006 86.2899 24.2736 87.8795 24.2736C88.7637 24.2775 89.6423 24.4156 90.4854 24.6831C91.4261 24.9842 92.351 25.3331 93.2563 25.7287L94.9154 21.7818C92.7398 20.7609 90.3682 20.2287 87.9663 20.2222C85.9329 20.0967 83.9101 20.6016 82.1726 21.6685C81.5159 22.1213 80.9843 22.7335 80.6273 23.448C80.2704 24.1626 80.0997 24.9562 80.1313 25.7548C80.1037 26.6511 80.2697 27.5427 80.6177 28.3686C80.9779 29.1072 81.5115 29.747 82.1726 30.2331C83.2193 30.9421 84.3444 31.5268 85.5255 31.9757C86.5852 32.4287 87.4365 32.847 88.0706 33.1606C88.5579 33.3863 89.0111 33.6796 89.417 34.0319C89.5473 34.1702 89.6489 34.333 89.716 34.511C89.7831 34.689 89.8143 34.8785 89.8078 35.0687C89.8078 36.2101 88.8263 36.8112 86.8719 36.8112C85.7503 36.7894 84.6358 36.6284 83.5537 36.332C82.3931 36.0434 81.2618 35.6467 80.1747 35.1471V39.608C81.0858 40.0048 82.0387 40.297 83.0151 40.4793C84.2283 40.6905 85.4582 40.7897 86.6895 40.7755C89.498 40.7755 91.6059 40.2412 93.0131 39.1724C93.7164 38.6302 94.2765 37.9234 94.6445 37.1138C95.0124 36.3043 95.177 35.4166 95.1239 34.5285V34.5546ZM111.697 40.4183L110.655 37.7261H110.507C109.768 38.7159 108.811 39.521 107.71 40.0785C106.518 40.5677 105.236 40.7964 103.949 40.7494C103.132 40.7923 102.315 40.6694 101.546 40.388C100.777 40.1065 100.073 39.6723 99.4757 39.1114C98.9016 38.49 98.46 37.7577 98.1777 36.9592C97.8954 36.1607 97.7785 35.3129 97.834 34.4675C97.7699 33.5669 97.9394 32.665 98.3261 31.8497C98.7127 31.0343 99.3033 30.3333 100.04 29.8149C101.5 28.8101 103.712 28.2583 106.677 28.1595L110.151 28.055V27.1837C110.151 25.171 109.118 24.1691 107.068 24.1691C105.133 24.2581 103.237 24.7475 101.5 25.6067L99.7624 21.9561C102.098 20.7416 104.697 20.1251 107.328 20.1612C109.98 20.1612 112.007 20.7421 113.409 21.9038C114.824 23.0539 115.528 24.8225 115.528 27.1837V40.427L111.697 40.4183ZM110.108 31.2351L108.014 31.3048C106.799 31.2708 105.597 31.5722 104.54 32.1761C104.156 32.4332 103.846 32.7863 103.641 33.2004C103.435 33.6145 103.341 34.0753 103.367 34.5372C103.367 36.0619 104.236 36.8287 105.973 36.8287C106.522 36.852 107.07 36.7662 107.586 36.5763C108.102 36.3864 108.575 36.0961 108.979 35.7222C109.356 35.3484 109.652 34.8995 109.846 34.4043C110.041 33.9092 110.13 33.3787 110.108 32.847V31.2351ZM31.2708 36.4017C28.4622 36.4017 27.0608 34.4617 27.0666 30.5816C27.0666 26.5912 28.468 24.596 31.2708 24.596C31.9878 24.5997 32.701 24.7023 33.3902 24.901V20.3791C32.688 20.2805 31.9798 20.231 31.2708 20.2309C28.1437 20.2309 25.7463 21.1196 24.0785 22.897C22.402 24.6396 21.5681 27.2534 21.5681 30.6252C21.5681 37.3979 24.6431 40.7842 30.793 40.7842C31.9249 40.8037 33.0555 40.6956 34.1633 40.4619C35.0882 40.2222 35.9682 39.8338 36.7692 39.3118V34.6853C35.9629 35.234 35.0864 35.6707 34.1633 35.9835C33.2288 36.2693 32.2563 36.4104 31.2794 36.4017H31.2708ZM49.8942 36.4017C47.0856 36.4017 45.6814 34.4617 45.6814 30.5816C45.6814 26.5912 47.0856 24.596 49.8942 24.596C50.6356 24.5963 51.373 24.7049 52.0832 24.9184C52.8041 25.1362 54.5327 25.7897 55.3927 26.1469V21.2852C54.1436 20.7629 52.8227 20.4339 51.4751 20.3094L40.6607 26.5389C40.2925 27.8691 40.1141 29.2449 40.1308 30.6252C40.1308 37.3979 43.2087 40.7842 49.3644 40.7842C50.4934 40.8043 51.6211 40.6961 52.726 40.4619C53.6511 40.2231 54.5313 39.8346 55.3319 39.3118V34.6853C54.51 35.2393 53.6155 35.6762 52.6738 35.9835C51.7425 36.2699 50.7728 36.411 49.7987 36.4017" fill="#EEEEEE"/>
<path d="M118.195 14.6984C118.911 14.6984 119.598 14.9838 120.105 15.492C120.612 16.0002 120.896 16.6894 120.896 17.408C120.896 18.1267 120.612 18.8159 120.105 19.324C119.598 19.8322 118.911 20.1177 118.195 20.1177C117.478 20.1177 116.791 19.8322 116.285 19.324C115.778 18.8159 115.493 18.1267 115.493 17.408C115.493 16.6894 115.778 16.0002 116.285 15.492C116.791 14.9838 117.478 14.6984 118.195 14.6984V14.6984ZM118.195 15.1689C117.605 15.1689 117.039 15.4038 116.622 15.8221C116.205 16.2404 115.971 16.8078 115.971 17.3993C115.971 17.9909 116.205 18.5582 116.622 18.9765C117.039 19.3948 117.605 19.6298 118.195 19.6298C118.479 19.6276 118.759 19.5684 119.02 19.4558C119.281 19.3432 119.517 19.1793 119.713 18.9739C119.91 18.7685 120.064 18.5256 120.166 18.2597C120.267 17.9938 120.315 17.7101 120.306 17.4254C120.316 17.1373 120.269 16.8501 120.167 16.5805C120.065 16.311 119.91 16.0646 119.712 15.856C119.514 15.6473 119.276 15.4805 119.012 15.3655C118.749 15.2505 118.465 15.1896 118.177 15.1863L118.195 15.1689ZM117.726 18.8805H117.196V16.0488C117.52 15.9924 117.849 15.9662 118.177 15.9704C118.484 15.9371 118.792 16.0143 119.046 16.1882C119.156 16.2685 119.241 16.3787 119.29 16.5057C119.34 16.6327 119.352 16.7713 119.326 16.905C119.299 17.0388 119.235 17.1622 119.141 17.2606C119.047 17.359 118.926 17.4283 118.794 17.4603V17.4603C118.92 17.5287 119.027 17.6274 119.106 17.7475C119.185 17.8676 119.233 18.0054 119.246 18.1486C119.277 18.3932 119.353 18.6297 119.472 18.8456H118.933C118.81 18.618 118.727 18.3702 118.69 18.1138C118.629 17.7914 118.438 17.6607 118.047 17.6607H117.717L117.726 18.8805ZM117.726 17.286H118.073C118.447 17.286 118.803 17.1728 118.803 16.8504C118.803 16.528 118.62 16.3712 118.125 16.3712C117.993 16.3566 117.859 16.3566 117.726 16.3712V17.286Z" fill="#EEEEEE"/>
</g>
<defs>
<linearGradient id="paint0_linear" x1="47.423" y1="0" x2="47.423" y2="24.7006" gradientUnits="userSpaceOnUse">
<stop stop-color="#4ECCA3"/>
<stop offset="1" stop-color="#00C2FF"/>
</linearGradient>
<linearGradient id="paint1_linear" x1="127.662" y1="21.1204" x2="127.662" y2="62.7971" gradientUnits="userSpaceOnUse">
<stop stop-color="#4ECCA3"/>
<stop offset="1" stop-color="#00C2FF"/>
</linearGradient>
<clipPath id="clip0">
<rect width="120.896" height="40.7842" fill="white"/>
</clipPath>
</defs>
</svg>
